<?xml version="1.0" standalone="no"?><!DOCTYPE svg PUBLIC "-//W3C//DTD SVG 1.1//EN" "http://www.w3.org/Graphics/SVG/1.1/DTD/svg11.dtd"><svg t="1716943838330" class="icon" viewBox="0 0 1024 1024" version="1.1" xmlns="http://www.w3.org/2000/svg" p-id="21493" xmlns:xlink="http://www.w3.org/1999/xlink" width="64" height="64"><path d="M470.784 108.16a160 160 0 0 1 82.688 0l254.912 68.16c14.08 3.84 23.744 16.384 23.744 30.848v383.872c0 29.12-15.296 61.696-41.024 96.192-25.344 33.92-57.344 65.088-84.672 91.712-35.84 34.88-125.888 97.024-177.536 131.584a30.72 30.72 0 0 1-33.984 0.064c-57.728-37.824-134.656-90.304-177.088-131.648-27.328-26.624-59.328-57.856-84.672-91.712-25.728-34.496-41.024-67.072-41.024-96.192V207.232a32 32 0 0 1 23.68-30.912L470.848 108.16z m99.2-61.824a224 224 0 0 0-115.712 0L199.36 114.56a96 96 0 0 0-71.232 92.8v383.744c0 49.984 25.344 96.448 53.76 134.464 28.608 38.272 63.936 72.64 90.624 98.688l0.64 0.64c47.616 46.336 129.92 102.08 186.624 139.264a94.72 94.72 0 0 0 104.768-0.384c49.92-33.408 145.536-99.008 186.496-138.88l0.64-0.64c26.752-26.048 62.08-60.416 90.688-98.688 28.416-38.016 53.76-84.48 53.76-134.4v-384c0-43.52-29.248-81.408-71.232-92.608L569.984 46.336zM447.872 390.208a64 64 0 1 1 128 0 64 64 0 0 1-128 0z m64-128a128 128 0 0 0-31.744 252.032v215.488h64V627.456h64v-64h-64v-49.28a128 128 0 0 0-32.256-251.968z" fill="#666666" p-id="21494"></path></svg>