<?xml version="1.0" standalone="no"?><!DOCTYPE svg PUBLIC "-//W3C//DTD SVG 1.1//EN" "http://www.w3.org/Graphics/SVG/1.1/DTD/svg11.dtd"><svg t="1716943185672" class="icon" viewBox="0 0 1024 1024" version="1.1" xmlns="http://www.w3.org/2000/svg" p-id="14524" xmlns:xlink="http://www.w3.org/1999/xlink" width="64" height="64"><path d="M301.624 467.374L91.249 256.998 256.997 91.25l210.375 210.376L512 256.998 256.997 2 2 256.998 256.997 512l44.627-44.626z m420.752 89.247l210.37 210.377-165.749 165.748-210.376-210.371L512 766.998 766.997 1022 1022 766.998 766.997 512l-44.621 44.621z m0 0" fill="#9C9C9C" p-id="14525"></path><path d="M129.179 304.941l117.175-117.172 45.071 45.071-117.17 117.171-45.076-45.07z m125.017 130.876l-45.07-45.068 117.231-117.171 45.075 45.07-117.236 117.169z m333.987 328.121l117.171-117.17 45.07 45.07L633.253 809.01l-45.07-45.072z m82.874 82.875l117.171-117.17 45.07 45.07-117.171 117.17-45.07-45.07z m0 0M766.997 91.25l165.749 165.748-675.749 675.748L91.249 766.998 766.997 91.25m0-89.25L2 766.998 256.997 1022 1022 256.998 766.997 2z m0 0" fill="#9C9C9C" p-id="14526"></path><path d="M2 766.998h63.751V1022H2z" fill="#9C9C9C" p-id="14527"></path><path d="M2 958.25h254.997V1022H2z" fill="#9C9C9C" p-id="14528"></path></svg>