<?xml version="1.0" standalone="no"?><!DOCTYPE svg PUBLIC "-//W3C//DTD SVG 1.1//EN" "http://www.w3.org/Graphics/SVG/1.1/DTD/svg11.dtd"><svg t="1716943363445" class="icon" viewBox="0 0 1025 1024" version="1.1" xmlns="http://www.w3.org/2000/svg" p-id="18754" xmlns:xlink="http://www.w3.org/1999/xlink" width="64.0625" height="64"><path d="M512.748712 21.782595c-1.024337-0.004114-2.036333-0.037024-3.06067-0.037024-269.511791 0-487.991837 218.484159-487.991837 487.991836s218.480046 487.987723 487.991837 487.987723c1.024337 0 2.040447-0.03291 3.06067-0.041138V21.782595z" fill="#B8D9FF" p-id="18755"></path><path d="M503.221141 980.619931c-199.906218-50.863079-348.68196-244.113162-348.681959-474.827662S303.310809 81.823572 503.221141 30.968721V17.84157C235.153295 19.548799 18.380479 237.345953 18.380479 505.792269s216.768703 486.235242 484.836548 487.938357l0.004114-13.110695z" fill="#FFFFFF" opacity=".21" p-id="18756"></path><path d="M509.688042 1014.180349c-278.154894 0-504.447055-226.29216-504.447055-504.442942 0-278.154894 226.29216-504.447055 504.447055-504.447054v32.910436c-260.004789 0-471.536618 211.53183-471.536619 471.536618s211.53183 471.532505 471.536619 471.532505v32.910437z" fill="#6E6E96" p-id="18757"></path><path d="M503.221141 30.960493S399.573836 139.700689 399.573836 506.15017c-0.752826 142.979391 16.545722 390.400051 103.647305 477.497521 0 0-272.313292-61.456126-272.313292-477.489293-0.004114-448.7338 272.313292-475.197905 272.313292-475.197905z" fill="#FFFFFF" opacity=".21" p-id="18758"></path><path d="M512.748712 691.398902c-125.516291 0-253.402132-19.894359-350.858162-54.577844C59.962815 600.545529 3.825838 553.631702 3.825838 504.726794c0-53.899067 54.672462-103.034349 153.938566-138.359589 93.942841-33.428776 218.508842-51.842165 350.755317-51.842165v32.910437c-128.581075 0-249.226621 17.734611-339.717979 49.937473-83.92984 29.866221-132.065467 68.99673-132.065467 107.353844 0 32.457918 52.183611 71.193501 136.187499 101.092632 94.053913 33.474028 217.916454 52.673153 339.820825 52.673154v32.906322z" fill="#6E6E96" p-id="18759"></path><path d="M504.521103 1014.040479c-76.15475 0-146.920416-53.985457-199.268578-152.005078-50.599796-94.757374-78.466708-220.37651-78.466708-353.725484s27.866912-258.96811 78.466708-353.72137C357.600688 56.564813 428.366354 2.579355 504.521103 2.579355a16.455218 16.455218 0 0 1 16.455219 16.455219v978.550687a16.455218 16.455218 0 0 1-16.455219 16.455218z m-16.455218-977.47287c-57.371118 7.520035-111.455307 54.265196-153.782241 133.525868-48.098603 90.063523-74.58739 210.178388-74.587391 338.21644s26.488787 248.152918 74.587391 338.220555c42.326935 79.260672 96.415237 126.001719 153.782241 133.521754V36.567609z" fill="#6E6E96" p-id="18760"></path><path d="M962.255908 601.837264c-31.36776-18.10074-55.35124-46.568267-53.310794-63.241518v-15.653026-15.65714c-2.048675-16.67325 21.943033-45.13255 53.310794-63.245631 31.36776-18.10074 41.516515-59.777694 22.55599-92.60174l-32.733543-56.700568c-18.94407-32.824046-60.106798-44.861039-91.482785-26.752071-31.36776 18.113081-68.392001 25.057183-82.292547 15.439108-13.88409-9.609847-54.355699-58.144513-54.355699-94.354221s-31.005745-65.833214-68.914454-65.833214h-37.435621v291.277931c1.559132-0.065821 3.126491-0.1193 4.702078-0.119301 59.942246 0 108.542733 48.596373 108.542733 108.538619 0 59.938132-48.596373 108.542733-108.542733 108.542733-1.575587 0-3.142947-0.053479-4.702078-0.1193v291.277931h37.435621c37.908709 0 68.914454-29.62762 68.914454-65.837328 0-36.197366 12.588242-71.831141 27.969757-79.153713 15.385629-7.3308 77.318956-17.866253 108.678489 0.246828 31.375987 18.113081 72.538716 6.076089 91.482785-26.760299l32.733543-56.696454c18.956411-32.815819 8.807656-74.492773-22.55599-92.597626z" fill="#F0F0FF" p-id="18761"></path><path d="M948.643328 291.2985c-18.952298-32.824046-60.123253-44.861039-91.491013-26.756185-25.591978 14.776786-54.935746 22.111699-72.423529 19.096281 12.399007 19.635189 27.480214 35.987562 34.930315 41.138045 13.892318 9.613961 50.924786 2.669859 82.292546-15.443222 17.039378-9.836107 36.954306-10.712347 54.643666-4.257788L948.643328 291.2985zM958.804426 598.394009c-1.645522-0.950289-3.270475-1.958171-4.883086-2.961939 5.726416 11.617384 17.623539 24.962566 32.795249 36.505902-5.051752-13.789473-14.529958-25.818237-27.912163-33.543963z" fill="#FFFFFF" p-id="18762"></path><path d="M735.860902 250.617087c3.570782 2.47651 8.811769 3.75179 15.068866 4.010959-15.048297-19.680441-30.425698-46.675226-30.425698-68.992616 0-30.170643-21.556336-55.709141-50.669731-63.406069 9.124418 10.716461 14.624575 24.345495 14.624575 39.155191-0.008228 34.243309 38.262496 80.141026 51.401988 89.232535zM859.402566 491.928748c-1.933488 15.731189 20.659526 42.577877 50.241895 59.703645-3.163516-6.100772-4.718534-11.765481-4.150829-16.479901v-15.653026-15.65714c-2.040447-16.67325 21.943033-45.136663 53.310794-63.241518 31.36776-18.108968 41.520629-59.781808 22.568331-92.60174L948.643328 291.2985c-11.40758-19.754489-30.869989-31.910782-51.389646-34.5683 1.020224 1.485083 2.032219 2.990736 2.953712 4.582779l30.952265 53.619328c17.915619 31.046883 8.318113 70.453017-21.342418 87.578785-29.664645 17.125768-52.35639 44.042391-50.418788 59.802377v14.81381l0.004113 14.801469z" fill="#6E6E96" opacity=".15" p-id="18763"></path><path d="M970.8661 586.920608c-30.113049-17.384938-45.062615-40.335854-44.8199-46.304984l-0.008228 0.078163c0.08639-0.699347 0.127528-1.398694 0.127528-2.098041v-31.306052c0-0.703461-0.049366-1.402807-0.127528-2.098041l0.008228 0.074049c-0.250942-5.965017 14.69451-28.915932 44.8199-46.296756 18.660217-10.778168 32.087675-28.434617 37.797637-49.740011 6.010268-22.440804 2.842639-46.021131-8.926956-66.400919l-32.733543-56.696455c-23.740766-41.133932-75.331989-55.968311-115.017861-33.066761-30.676641 17.714042-58.654625 19.371906-63.879157 16.191935-11.712002-8.116536-46.922055-51.747547-46.922055-80.17805 0-45.798986-38.64508-83.061828-86.13484-83.061828h-37.439735v34.461341h37.439735c28.500438 0 51.677613 21.803164 51.677613 48.6046 0 42.713633 43.853156 96.110816 61.781117 108.51805 22.473714 15.558409 67.676199 4.381202 100.710049-14.690396 23.22654-13.402775 53.709832-4.228991 67.955937 20.449723l32.733543 56.700568c7.166248 12.411348 9.112077 26.702705 5.479588 40.257691-3.328068 12.411348-11.045565 22.638266-21.741457 28.808973-33.239541 19.195012-65.146209 52.919982-61.793458 80.260327a16.990013 16.990013 0 0 1-0.123415-2.09804v31.306052c0-0.699347 0.041138-1.398694 0.123415-2.09804-3.344523 27.340345 28.549804 61.069428 61.793458 80.260327 10.704119 6.170707 18.421617 16.405853 21.741457 28.813087 3.632489 13.554986 1.68666 27.850457-5.479588 40.257691l-32.733543 56.696454c-7.166248 12.415462-18.577941 21.239573-32.120586 24.872063-12.419576 3.332182-25.135346 1.756595-35.835351-4.418226-37.147655-21.461718-105.11182-10.214577-124.701757-0.884468-24.798014 11.81896-37.789409 56.593609-37.789409 94.708008 0 26.801437-23.185402 48.600487-51.677613 48.600487h-37.439735v34.448999h37.439735c47.493873 0 86.13484-37.262842 86.13484-83.057714 0-35.658458 12.732225-60.756779 18.162447-63.611759l-0.016455 0.008227c12.752794-6.084317 67.906572-14.678055 92.646992-0.386697 18.680786 10.774054 40.689641 13.571441 61.982693 7.857366 22.440804-6.010268 41.269687-20.54434 53.043396-40.920014l32.733543-56.700568c11.761367-20.375674 14.937224-43.960115 8.918728-66.405033-5.705847-21.284825-19.11685-38.941274-37.789409-49.715328z" fill="#6E6E96" p-id="18764"></path><path d="M958.804426 598.394009a160.183321 160.183321 0 0 1-23.140151-16.29478c6.989354 17.812774 6.039065 38.945388-4.50873 57.21068l-30.952265 53.623443c-17.919733 31.050997-56.852779 42.421552-86.51331 25.304011-29.664645-17.13811-88.228766-7.170361-102.779293-0.2386s-26.455877 40.62382-26.455877 74.858901c0 34.243309-29.327313 62.262432-65.166777 62.262432h-5.796351v64.060164h38.106171c37.900481 0 68.914454-29.623507 68.914454-65.8291 0-36.209708 12.588242-71.831141 27.969757-79.157827 15.385629-7.326686 77.310729-17.870367 108.678489 0.250942 31.36776 18.108968 72.534602 6.076089 91.482785-26.760299l32.733543-56.696454c18.948184-32.815819 8.795314-74.496887-22.572445-92.593513z" fill="#6E6E96" opacity=".15" p-id="18765"></path><path d="M711.239782 434.010493c-23.765449-23.753107-55.343013-36.830892-88.936341-36.830892a127.939321 127.939321 0 0 0-8.815883 0.341446v34.543617a93.494436 93.494436 0 0 1 8.815883-0.427836c24.394861 0 47.325207 9.498775 64.566163 26.743844a90.717618 90.717618 0 0 1 26.743843 64.562048c0 50.34474-40.957038 91.305892-91.310006 91.305892-2.974281 0-5.915651-0.152211-8.815883-0.427836v34.543617c2.916687 0.20569 5.84983 0.34556 8.815883 0.34556 69.342289 0 125.767233-56.429057 125.767233-125.767233 0-33.593328-13.081898-65.179119-36.830892-88.932227z" fill="#6E6E96" p-id="18766"></path></svg>